<?xml version="1.0" encoding="UTF-8"?>
<!-- Generator: Adobe Illustrator 18.1.1, SVG Export Plug-In . SVG Version: 6.00 Build 0)  -->
<svg version="1.1" id="Layer_1" xmlns="http://www.w3.org/2000/svg" xmlns:xlink="http://www.w3.org/1999/xlink" x="0px" y="0px" viewBox="0 0 720 216" enable-background="new 0 0 720 216" xml:space="preserve">
<g>
	<path d="M23.5,66.2c-1.5,0-2.4-1.8-2.7-5.4c0-2.6,0.6-3.9,1.8-3.9h36.8c10.2,0,18.3,2.5,24.3,7.4c6,4.9,9,11.6,9,20.1   c0,13.3-6.4,22.3-19.3,27L92,141.2c1.3,2.2,3,3.7,5,4.6c2,0.9,4.6,1.3,7.7,1.3c1.1,0,1.6,1.2,1.6,3.7c0,2.5-0.3,4-1,4.7   c-0.6,0.6-1.2,1-1.6,1H92.4c-3.4,0-6.5-1.3-9.3-4c-0.9-0.8-1.6-1.7-2.2-2.8l-21.7-35.3c-2.8,0.3-6.1,0.5-10.1,0.5v32.3h14.8   c1.1,0,1.7,1.2,1.7,3.6s-0.3,4-1,4.7c-0.7,0.7-1.2,1.1-1.7,1.1H24.1c-1.1,0-1.6-1.2-1.6-3.5c0-2.4,0.6-4.1,1.8-5.3   c0.4-0.4,1.1-0.5,2.3-0.5c5.7,0.1,8.5-0.8,8.5-2.8V67.2c0-0.7-0.3-1-0.9-1H23.5z M49.1,104.6c9.3,0,16-1.2,20.1-3.4   c5.4-2.9,8.1-8,8.1-15.3s-2.1-12.3-6.3-15c-4.2-2.6-11.5-3.9-21.9-3.9V104.6z"/>
	<path d="M140.9,157.8c-9.8,0-17.2-3.2-22.3-9.5c-5.1-6.4-7.7-14.9-7.6-25.6c0-10.7,3.2-19,9.5-24.9c6.3-5.9,13.9-8.8,22.9-8.9h0.2   c8.2,0,14.5,2.6,19,7.7c4.5,5.1,6.7,12.5,6.7,22.2c0,2.1-0.9,3.8-2.8,5.3c-1.9,1.5-4.2,2.2-7,2.2h-34.9   c0.8,10.3,4.4,16.9,10.8,19.9c2,0.9,4.2,1.4,6.4,1.4c2.2,0,4.6-0.4,7.1-1.1s5.4-2.1,8.7-4.2c3.3-2.1,5.2-3.1,5.7-3.1   c0.6,0,1.1,0.3,1.7,0.8c0.6,0.5,1.3,1.4,2.1,2.6c0.8,1.2,1.3,2.4,1.3,3.5c0,1.1-0.2,1.9-0.7,2.2   C159.6,154.6,150.7,157.8,140.9,157.8z M155.7,116.4c0-11.6-4.3-17.3-12.9-17.3c-4.4,0-8.4,1.5-12.2,4.6c-3.8,3-5.8,7.3-6.1,12.8   H155.7z"/>
	<path d="M176.3,100.4c0-6.8,0.8-10.2,2.4-10.2h1.1c6.8,0,10.3-0.9,10.5-2.8l2.8-14.6c0.5-2.4,3.4-3.6,8.6-3.6v21.1h17.9   c1.1,0,1.6,1.3,1.6,3.9c0,2.6-0.6,4.5-1.6,5.7c-0.4,0.4-0.8,0.6-1.3,0.6h-16.5v39c0,4.9,1.5,7.4,4.4,7.4c3.3,0,5.7-0.3,7-0.8   c1.4-0.5,2.5-0.8,3.3-0.8c0.8,0,1.6,0.6,2.3,1.8c0.8,1.2,1.2,2.4,1.2,3.6c0,1.3-0.4,2.2-1.3,2.6c-5.7,3-11.1,4.5-16.3,4.5   c-9,0-13.6-6.1-13.6-18.3v-39H176.3z"/>
	<path d="M225.1,63.2c-1.6,0-2.5-1.8-2.7-5.3c0-2.1,0.6-3.3,1.8-3.8c3.9-1.5,11.4-2.4,22.5-2.4c1.9,0,2.8,1.9,2.9,5.6   c0,1.1,0,2.2,0.1,3.4v35.4c5.7-3.3,11.4-5.5,17.1-6.7c1.7-0.4,3-0.5,4.1-0.5c8.6,0,14.5,2.2,17.6,6.7c2.4,3.4,3.6,9.5,3.6,18.3   v33.2h10.3c1.1,0,1.7,1.2,1.7,3.6s-0.3,4-1,4.7c-0.7,0.7-1.2,1.1-1.7,1.1h-30c-1.2,0-1.8-1.2-1.8-3.6c0-2.4,0.3-4,1-4.7   c0.7-0.7,1.2-1.1,1.7-1.1c4.6,0,6.9-0.9,6.9-2.8v-19.7c0-8.5-0.5-14-1.5-16.4c-1-2.5-2.2-4.3-3.7-5.3c-1.5-1-3.6-1.6-6.2-1.6   c-5.9,0-12,2.5-18.1,7.4v38.4h11.1c1.1,0,1.7,1.2,1.7,3.6s-0.3,4-1,4.7c-0.7,0.7-1.2,1.1-1.7,1.1H226c-1.1,0-1.7-1.2-1.7-3.6   c0-2.4,0.3-4,1-4.7c0.7-0.7,1.2-1.1,1.5-1.1h0.9c5.1,0,8-0.5,8.7-1.5c0.3-0.4,0.4-0.8,0.4-1.3V63.2H225.1z"/>
	<path d="M310.5,100.4c-1.8,0-2.7-1.8-2.7-5.3c0-2.1,0.6-3.3,1.8-3.8c3.9-1.5,11.4-2.4,22.5-2.4h0.1c1.9,0,2.8,1.9,2.9,5.6v52.6   h11.1c1.1,0,1.7,1.2,1.7,3.6s-0.3,4-1,4.7c-0.7,0.7-1.2,1.1-1.7,1.1h-33.7c-1.1,0-1.7-1.2-1.7-3.6c0-2.4,0.3-4,1-4.7   c0.7-0.7,1.2-1.1,1.5-1.1h0.9c5.2,0,8.1-0.5,8.7-1.5c0.3-0.4,0.4-0.8,0.3-1.3v-43.9H310.5z M327.1,72.3c-4.1,0-6.9-1.8-8.4-5.4   c-0.4-1.1-0.7-2.3-0.7-3.6c0-4.2,1.8-7,5.5-8.5c1.1-0.4,2.3-0.7,3.6-0.7c2.6,0,4.7,0.9,6.5,2.6c1.7,1.7,2.6,3.9,2.6,6.6   c0,2.6-0.9,4.8-2.6,6.5S329.7,72.3,327.1,72.3z"/>
	<path d="M354.3,100.4c-1.8,0-2.7-1.8-2.7-5.2c0-2.1,0.6-3.3,1.7-3.8c2.4-1,5.7-1.7,9.9-2.1s6.8-0.6,7.8-0.6h1.7   c1.9,0,3.2,0.3,3.8,1c0.6,0.6,0.9,2.7,1,6.1v1.3c6.7-3.7,12.7-6.2,18.2-7.6c1.8-0.4,4-0.7,6.7-0.7c2.7,0,5.4,0.6,8.2,1.8   c2.7,1.2,4.9,2.9,6.5,5.1c2.8,3.9,4.2,10.1,4.2,18.5v32.9h10.3c1.2,0,1.8,1.2,1.8,3.6s-0.3,4-1,4.7c-0.7,0.7-1.2,1.1-1.7,1.1h-30.1   c-1.1,0-1.7-1.2-1.7-3.6c0-2.4,0.3-4,1-4.7c0.7-0.7,1.2-1.1,1.7-1.1c4.6,0,6.9-0.9,6.9-2.8v-19.7c0-8.6-0.5-14.2-1.5-16.8   c-1-2.7-2.2-4.6-3.7-5.7s-3.6-1.7-6.2-1.7c-4.9,0-10.9,2.8-18.1,8.5v38.2h11.1c1.1,0,1.7,1.2,1.7,3.6s-0.3,4-1,4.7   c-0.7,0.7-1.2,1.1-1.7,1.1h-33.7c-1.1,0-1.7-1.2-1.7-3.6c0-2.4,0.3-4,1-4.7c0.7-0.7,1.2-1.1,1.5-1.1h0.9c5.1,0,8-0.5,8.7-1.5   c0.3-0.4,0.4-0.8,0.4-1.3v-43.9H354.3z"/>
	<path d="M436.9,63.2c-1.6,0-2.5-1.8-2.7-5.3c0-2.1,0.6-3.3,1.8-3.8c3.9-1.5,11.4-2.4,22.5-2.4c1.9,0,2.8,1.9,2.9,5.6   c0,1.1,0,2.2,0.1,3.4v86.4h6.9c1.2,0,1.8,1.2,1.8,3.6s-0.3,4-1,4.7c-0.7,0.7-1.2,1-1.7,1h-29.6c-1.1,0-1.7-1.2-1.7-3.6   c0-2.4,0.3-4,1-4.7c0.7-0.7,1.2-1.1,1.5-1.1h0.9c5.1,0,8-0.5,8.7-1.5c0.3-0.4,0.4-0.8,0.4-1.3V63.2H436.9z M511,147.1   c1.2,0,1.8,1.2,1.8,3.6s-0.3,4-1,4.7c-0.7,0.7-1.2,1.1-1.7,1.1h-17.3l-30.6-39.7l26.7-26.5h14c1.2,0,2.1,1.1,2.5,3.4   c0.1,0.6,0.1,1.2,0.1,1.8c0,2.7-0.6,4.1-1.7,4.1c-4.3,0-7.2,0.3-8.7,1c-1.5,0.6-2.7,1.3-3.4,2l-14.5,14.7l23.2,25.5   C503.2,145.6,506.7,147.1,511,147.1z"/>
	<path d="M522.2,66.2c-1.5,0-2.4-1.7-2.7-5.2c0-2.8,0.6-4.2,1.7-4.2h38.5c17.4,0,29.9,4.1,37.3,12.2c7.4,8.1,11.2,20.6,11.2,37.4   c0,16.8-5.1,29.6-15.2,38.4c-8.9,7.7-20,11.6-33.3,11.6h-36.6c-1.2,0-1.8-1.1-1.8-3.4c0-2.3,0.6-4.1,1.7-5.4   c0.3-0.4,1.6-0.6,3.8-0.6c2.2,0,4-0.2,5.2-0.6c1.2-0.4,1.8-1.1,1.8-2.2V67.1c0-0.6-0.3-0.9-0.8-0.9H522.2z M547.8,146.3h9.7   c9.4,0,17.7-3.3,24.7-9.8c7-6.5,10.5-15.8,10.5-27.9c0-20.6-6.4-33.6-19.3-39c-4.1-1.7-8.9-2.6-14.2-2.6h-11.4V146.3z"/>
	<path d="M659.9,157.1l-16.6-0.7h-20c-1.1,0-1.7-1.2-1.7-3.5c0-2.3,0.6-4.1,1.9-5.4c0.4-0.4,1.1-0.5,2.2-0.5   c5.6,0.1,8.5-0.8,8.5-2.8v-77c0-0.7-0.3-1.1-0.9-1.1h-10.8c-1.3,0-2.1-1.2-2.6-3.6c-0.1-0.6-0.1-1.2-0.1-1.9c0-2.6,0.6-3.9,1.7-3.9   h34c24,0,35.9,8.1,35.9,24.4c0,5-1.8,9.5-5.3,13.4c-3.6,3.9-7.9,6.6-12.9,7.9c7.5,1.1,13.4,3.8,17.8,8.2c4.4,4.4,6.6,10,6.6,16.7   c0,14-7,23.2-20.9,27.5C672,156.4,666.4,157.1,659.9,157.1z M658.4,97.8c11.9,0,17.8-5.2,17.8-15.6c0-6.2-2.4-10.3-7.3-12.5   c-3.8-1.7-10.7-2.6-20.6-2.6v30.7H658.4z M648.3,136.7c0,3.5,0.9,6.1,2.6,7.7s4.7,2.5,8.8,2.5c8.3,0,14.1-1.4,17.5-4.2   c3.4-2.8,5.1-7.6,5.1-14.4c0-6.8-2.9-12-8.7-15.7c-5-3.1-11-4.7-18.1-4.7c-2.4,0-4.8,0-7.1,0V136.7z"/>
</g>
</svg>